<svg width="26" height="56" viewBox="0 0 26 56" fill="none" xmlns="http://www.w3.org/2000/svg">
<g clip-path="url(#clip0_4800_74780)">
<path d="M14.3975 31.0552L19.5793 28.0254L24.9346 31.1385L19.7528 34.1683L14.3975 31.0552Z" fill="#FDEFE6" stroke="black" stroke-width="0.5" stroke-linejoin="round"/>
<path d="M19.5808 27.5332C19.6668 27.5334 19.7512 27.5562 19.8259 27.5991L25.1823 30.7122C25.2567 30.7554 25.3183 30.8175 25.3613 30.8923C25.4044 30.9672 25.4272 31.0519 25.4274 31.1383C25.4274 31.2247 25.4047 31.3095 25.3619 31.3844C25.3191 31.4592 25.2576 31.5217 25.1834 31.5651L19.9999 34.5949C19.9252 34.6385 19.8406 34.6618 19.7542 34.6618C19.6679 34.6618 19.5833 34.6385 19.5086 34.5949L14.1538 31.4823C14.0795 31.439 14.0173 31.3764 13.9742 31.3016C13.9312 31.2267 13.9085 31.1421 13.9082 31.0556C13.908 30.969 13.9308 30.8841 13.9737 30.809C14.0165 30.7339 14.0783 30.6712 14.1527 30.6277L19.3346 27.5991C19.4095 27.5556 19.4943 27.5328 19.5808 27.5332ZM23.958 31.1383L19.5819 28.6023L15.3787 31.0601L19.7537 33.6024L23.958 31.1383Z" fill="black" stroke="black" stroke-width="0.5"/>
<path d="M19.7533 34.1676L24.9357 31.1367L24.9172 37.4491L19.7354 40.4789L19.7533 34.1676Z" fill="#FDEFE6" stroke="black" stroke-width="0.5" stroke-linejoin="round"/>
<path d="M24.9355 30.6426C25.0215 30.6428 25.1058 30.6656 25.1805 30.7084C25.255 30.7521 25.3168 30.8144 25.3596 30.8897C25.4024 30.965 25.4253 31.0501 25.4251 31.1369L25.4066 37.4492C25.4065 37.5351 25.3838 37.6196 25.3411 37.6941C25.2985 37.7685 25.2376 37.8305 25.1638 37.8737L19.9819 40.9035C19.9072 40.9469 19.822 40.9699 19.7357 40.9699C19.6494 40.9699 19.5648 40.9469 19.4901 40.9035C19.4154 40.86 19.3533 40.7975 19.3104 40.7222C19.2676 40.6469 19.2456 40.5613 19.2461 40.4745L19.2629 34.1621C19.2634 34.076 19.2867 33.9918 19.3295 33.9173C19.3723 33.8427 19.4336 33.7807 19.5074 33.7371L24.6893 30.7068C24.7644 30.664 24.8492 30.6422 24.9355 30.6426ZM24.428 37.1632L24.4414 31.9937L20.2404 34.4493L20.227 39.6177L24.428 37.1632Z" fill="black" stroke="black" stroke-width="0.5"/>
<path d="M14.4392 16.9836L14.3989 31.0495L19.7537 34.1621L19.7352 40.4744L14.3804 37.3613L8.91992 34.2302L8.97755 13.8086L14.4392 16.9836Z" fill="#FDEFE6" stroke="black" stroke-width="0.5" stroke-linejoin="round"/>
<path d="M8.97957 13.3204C9.0658 13.3201 9.15091 13.3433 9.22521 13.3873L14.6852 16.5579C14.7599 16.6013 14.8219 16.6638 14.8648 16.7391C14.9076 16.8145 14.9303 16.9 14.9297 16.9868L14.8916 30.7713L20.0002 33.7386C20.0752 33.782 20.1373 33.8448 20.1804 33.9204C20.2234 33.9959 20.2459 34.0816 20.2453 34.1687L20.2285 40.4799C20.2278 40.5663 20.2046 40.6507 20.1613 40.7253C20.1181 40.8 20.0561 40.8623 19.9817 40.9055C19.9073 40.9487 19.8231 40.9713 19.7372 40.9713C19.6513 40.9713 19.5671 40.9487 19.4927 40.9055L14.1363 37.7924L8.67854 34.6635C8.60338 34.6197 8.54069 34.5568 8.49725 34.4811C8.45381 34.4054 8.4308 34.3197 8.43066 34.2323L8.48942 13.8101C8.48931 13.7236 8.51182 13.639 8.55488 13.5641C8.59794 13.4892 8.65989 13.427 8.73449 13.384C8.80921 13.3413 8.89369 13.3193 8.97957 13.3204ZM13.9488 17.2689L9.46804 14.6658L9.41321 33.9497L14.6247 36.9389L19.2499 39.6253L19.2644 34.4513L14.1547 31.4823C14.0799 31.4388 14.0182 31.3763 13.9751 31.301C13.932 31.2257 13.9094 31.1402 13.9096 31.0533L13.9488 17.2689Z" fill="black" stroke="black" stroke-width="0.5"/>
<path d="M14.4377 16.988L19.6196 13.957L19.5793 28.0223L14.3975 31.0538L14.4377 16.988Z" fill="#FDEFE6" stroke="black" stroke-width="0.5" stroke-linejoin="round"/>
<path d="M19.6211 13.4629C19.7072 13.4633 19.7916 13.4865 19.8661 13.5299C19.9408 13.5732 20.0027 13.6355 20.0458 13.7106C20.0888 13.7857 20.1113 13.8705 20.1112 13.9572L20.0709 28.023C20.0708 28.1092 20.0483 28.1938 20.0055 28.2685C19.9626 28.3431 19.9011 28.4054 19.827 28.4486L14.6451 31.4784C14.5703 31.5215 14.4857 31.5443 14.3995 31.5443C14.3133 31.5443 14.2287 31.5215 14.1538 31.4784C14.0791 31.4349 14.0167 31.3724 13.9737 31.2972C13.9306 31.2219 13.9081 31.1363 13.9082 31.0495L13.9485 16.9836C13.9486 16.8974 13.9711 16.8128 14.014 16.7381C14.0568 16.6635 14.1183 16.6018 14.1924 16.5586L19.3743 13.5282C19.4492 13.4848 19.5346 13.4626 19.6211 13.4629ZM19.0923 27.7427L19.1292 14.8151L14.9282 17.2707L14.8913 30.1972L19.0923 27.7427Z" fill="black" stroke="black" stroke-width="0.5"/>
<path d="M8.97852 13.8138L14.1604 10.7852L19.6198 13.9557L14.4373 16.9855L8.97852 13.8138Z" fill="#FDEFE6" stroke="black" stroke-width="0.5" stroke-linejoin="round"/>
<path d="M14.1602 10.291C14.2462 10.2913 14.3311 10.3141 14.4058 10.3569L19.8646 13.5285C19.9391 13.5715 20.0012 13.6334 20.0442 13.7081C20.0873 13.7828 20.1102 13.8678 20.1103 13.9541C20.1105 14.0407 20.0876 14.1256 20.0448 14.2007C20.002 14.2758 19.9402 14.3379 19.8658 14.3814L14.6839 17.4118C14.6092 17.4554 14.5246 17.4782 14.4383 17.4782C14.3519 17.4782 14.2673 17.4554 14.1926 17.4118L8.73322 14.2401C8.65867 14.1971 8.59705 14.1349 8.55417 14.06C8.51129 13.985 8.48881 13.8999 8.48926 13.8134C8.48893 13.7271 8.51096 13.6423 8.55361 13.5674C8.59626 13.4925 8.65792 13.43 8.7321 13.3867L13.914 10.3569C13.9889 10.3135 14.0737 10.2907 14.1602 10.291ZM18.6409 13.9564L14.1602 11.3539L9.95469 13.8134L14.4366 16.4154L18.6409 13.9564Z" fill="black" stroke="black" stroke-width="0.5"/>
<path d="M5.9668 35.7915L11.1487 32.7617L16.5051 35.8748L11.3232 38.9046L5.9668 35.7915Z" fill="#FDEFE6" stroke="black" stroke-width="0.5" stroke-linejoin="round"/>
<path d="M11.1503 32.2676C11.2361 32.2677 11.3202 32.2909 11.3942 32.3346L16.7501 35.4477C16.8244 35.4911 16.8861 35.553 16.9291 35.6278C16.9722 35.7027 16.9954 35.7874 16.9957 35.8738C16.9956 35.9602 16.9731 36.045 16.9303 36.1199C16.8874 36.1947 16.8259 36.2571 16.7518 36.3006L11.5682 39.3304C11.4936 39.3741 11.409 39.3974 11.3226 39.3974C11.2362 39.3974 11.1516 39.3741 11.077 39.3304L5.7222 36.2178C5.64783 36.1745 5.58562 36.1119 5.54259 36.0371C5.49956 35.9623 5.47681 35.8776 5.47656 35.7911C5.47638 35.7045 5.49919 35.6196 5.54203 35.5445C5.58487 35.4694 5.64612 35.4067 5.72052 35.3632L10.9029 32.3335C10.9782 32.2899 11.0634 32.2671 11.1503 32.2676ZM15.5264 35.8727L11.1514 33.3304L6.94702 35.79L11.3232 38.3322L15.5264 35.8727Z" fill="black" stroke="black" stroke-width="0.5"/>
<path d="M11.3237 38.9028L16.5045 35.873L16.4877 42.1854L11.3047 45.2152L11.3237 38.9028Z" fill="#FDEFE6" stroke="black" stroke-width="0.5" stroke-linejoin="round"/>
<path d="M16.5038 35.3789C16.59 35.3789 16.6745 35.4021 16.7489 35.4459C16.8237 35.4893 16.886 35.5519 16.9291 35.6272C16.9721 35.7025 16.9948 35.7874 16.9945 35.8743L16.9761 42.1867C16.9755 42.2726 16.9528 42.3571 16.91 42.4316C16.8672 42.506 16.8059 42.5679 16.7321 42.6111L11.5502 45.6409C11.4758 45.6846 11.3908 45.7074 11.3046 45.7074C11.2184 45.7074 11.134 45.6846 11.0595 45.6409C10.9847 45.5975 10.9224 45.535 10.8794 45.4597C10.8363 45.3844 10.8142 45.2988 10.8145 45.212L10.8324 38.9007C10.8321 38.8145 10.855 38.73 10.8978 38.6553C10.9407 38.5806 11.0025 38.5186 11.0769 38.4757L16.2576 35.4459C16.3323 35.4019 16.4172 35.3787 16.5038 35.3789ZM15.9974 41.8996L16.012 36.73L11.811 39.1856L11.7964 44.354L15.9974 41.8996Z" fill="black" stroke="black" stroke-width="0.5"/>
<path d="M6.00726 21.718L5.96809 35.7839L11.3229 38.8964L11.3044 45.2088L5.95075 42.0957L0.490234 38.9646L0.548986 18.543L6.00726 21.718Z" fill="#FDEFE6" stroke="black" stroke-width="0.5" stroke-linejoin="round"/>
<path d="M0.54779 18.0547C0.633887 18.0554 0.718756 18.0785 0.793426 18.1217L6.25226 21.2933C6.32711 21.3364 6.38935 21.3989 6.43243 21.474C6.47552 21.5492 6.49832 21.6344 6.4979 21.7212L6.45873 35.5067L11.5684 38.474C11.6431 38.5175 11.7052 38.58 11.748 38.6553C11.7909 38.7306 11.8129 38.8162 11.8124 38.903L11.795 45.2154C11.7949 45.3018 11.7726 45.3865 11.7296 45.4614C11.6865 45.5362 11.6244 45.5988 11.5499 45.6421C11.4753 45.685 11.3909 45.7074 11.3049 45.7074C11.2188 45.7074 11.1345 45.685 11.0598 45.6421L5.70559 42.529L0.247879 39.4001C0.172418 39.3569 0.109526 39.2944 0.0660294 39.2188C0.0225328 39.1432 -0.000356193 39.0573 4.19091e-06 38.97L0.0587555 18.5484C0.058655 18.4619 0.0811578 18.3767 0.124221 18.3018C0.167285 18.2269 0.229227 18.1647 0.303832 18.1217C0.378023 18.0784 0.462031 18.0552 0.54779 18.0547ZM5.51647 22.0032L1.03515 19.4013L0.982549 38.6851L6.19295 41.6733L10.8181 44.3597L10.8326 39.1856L5.72406 36.2166C5.64944 36.1733 5.5875 36.111 5.54445 36.0359C5.5014 35.9608 5.47891 35.8754 5.47898 35.7888L5.51647 22.0032Z" fill="black" stroke="black" stroke-width="0.5"/>
<path d="M6.00806 21.7201L11.1899 18.6914L11.1496 32.7567L5.96777 35.7882L6.00806 21.7201Z" fill="#FDEFE6" stroke="black" stroke-width="0.5" stroke-linejoin="round"/>
<path d="M11.1904 18.1973C11.2766 18.1973 11.3611 18.2205 11.4355 18.2643C11.5102 18.3077 11.5722 18.3702 11.6151 18.4455C11.658 18.5209 11.6801 18.6058 11.6794 18.6927L11.6403 32.7585C11.6399 32.8447 11.6176 32.9294 11.5748 33.004C11.532 33.0786 11.4703 33.1408 11.3963 33.1841L6.21445 36.2139C6.13983 36.2577 6.05518 36.2809 5.96881 36.2809C5.88245 36.2809 5.79779 36.2577 5.72318 36.2139C5.64848 36.1707 5.58607 36.1083 5.54301 36.0332C5.49994 35.9581 5.47735 35.8728 5.47754 35.7861L5.51783 21.7202C5.51815 21.6342 5.5407 21.5499 5.58329 21.4753C5.62589 21.4007 5.68697 21.3388 5.76067 21.2952L10.9425 18.2665C11.0174 18.2216 11.1032 18.1977 11.1904 18.1973ZM10.6605 32.4759L10.6975 19.5483L6.49646 22.0039L6.45953 34.9304L10.6605 32.4759Z" fill="black" stroke="black" stroke-width="0.5"/>
<path d="M0.547852 18.5482L5.73083 15.5195L11.1902 18.6912L6.00836 21.721L0.547852 18.5482Z" fill="#FDEFE6" stroke="black" stroke-width="0.5" stroke-linejoin="round"/>
<path d="M5.72964 15.0254C5.81565 15.0256 5.90055 15.0484 5.97527 15.0913L11.4341 18.2629C11.5085 18.3063 11.5707 18.3682 11.6137 18.4431C11.6567 18.5179 11.6795 18.6032 11.6797 18.6896C11.6799 18.7761 11.6575 18.8606 11.6148 18.9356C11.5722 19.0107 11.5105 19.0732 11.4363 19.1169L6.25448 22.1462C6.1799 22.19 6.09523 22.2131 6.00884 22.2131C5.92245 22.2131 5.83779 22.19 5.76321 22.1462L0.302696 18.9756C0.228169 18.9325 0.166136 18.8698 0.123084 18.7949C0.0800328 18.72 0.0576351 18.6354 0.0576187 18.5489C0.0574025 18.4625 0.0796686 18.3772 0.122525 18.3023C0.165381 18.2274 0.227185 18.1654 0.301576 18.1222L5.48344 15.0913C5.55833 15.0478 5.64317 15.025 5.72964 15.0254ZM10.2115 18.6919L5.73075 16.0882L1.52528 18.5467L6.00605 21.1497L10.2115 18.6919Z" fill="black" stroke="black" stroke-width="0.5"/>
</g>
<defs>
<clipPath id="clip0_4800_74780">
<rect width="25.4273" height="55.4165" fill="white" transform="translate(0 0.291016)"/>
</clipPath>
</defs>
</svg>
